  0
SECTION
  2
HEADER
  9
$ACADVER
  1
AC1009
  9
$DWGCODEPAGE
  3
ansi_932
  9
$INSBASE
 10
0.0
 20
0.0
 30
0.0
  9
$EXTMIN
 10
0.0
 20
0.000000000000004
 30
0.0
  9
$EXTMAX
 10
129.997744612708
 20
100.0
 30
0.0
  9
$LIMMIN
 10
0.0
 20
0.0
  9
$LIMMAX
 10
12.0
 20
9.0
  9
$ORTHOMODE
 70
     0
  9
$REGENMODE
 70
     1
  9
$FILLMODE
 70
     1
  9
$QTEXTMODE
 70
     0
  9
$MIRRTEXT
 70
     1
  9
$DRAGMODE
 70
     2
  9
$LTSCALE
 40
1.0
  9
$OSMODE
 70
    37
  9
$ATTMODE
 70
     1
  9
$TEXTSIZE
 40
0.2
  9
$TRACEWID
 40
0.05
  9
$TEXTSTYLE
  7
STANDARD
  9
$CLAYER
  8
0
  9
$CELTYPE
  6
BYLAYER
  9
$CECOLOR
 62
   256
  9
$DIMSCALE
 40
1.0
  9
$DIMASZ
 40
0.18
  9
$DIMEXO
 40
0.0625
  9
$DIMDLI
 40
0.38
  9
$DIMRND
 40
0.0
  9
$DIMDLE
 40
0.0
  9
$DIMEXE
 40
0.18
  9
$DIMTP
 40
0.0
  9
$DIMTM
 40
0.0
  9
$DIMTXT
 40
0.18
  9
$DIMCEN
 40
0.09
  9
$DIMTSZ
 40
0.0
  9
$DIMTOL
 70
     0
  9
$DIMLIM
 70
     0
  9
$DIMTIH
 70
     1
  9
$DIMTOH
 70
     1
  9
$DIMSE1
 70
     0
  9
$DIMSE2
 70
     0
  9
$DIMTAD
 70
     0
  9
$DIMZIN
 70
     0
  9
$DIMBLK
  1

  9
$DIMASO
 70
     1
  9
$DIMSHO
 70
     1
  9
$DIMPOST
  1

  9
$DIMAPOST
  1

  9
$DIMALT
 70
     0
  9
$DIMALTD
 70
     2
  9
$DIMALTF
 40
25.4
  9
$DIMLFAC
 40
1.0
  9
$DIMTOFL
 70
     0
  9
$DIMTVP
 40
0.0
  9
$DIMTIX
 70
     0
  9
$DIMSOXD
 70
     0
  9
$DIMSAH
 70
     0
  9
$DIMBLK1
  1

  9
$DIMBLK2
  1

  9
$DIMSTYLE
  2
STANDARD
  9
$DIMCLRD
 70
     0
  9
$DIMCLRE
 70
     0
  9
$DIMCLRT
 70
     0
  9
$DIMTFAC
 40
1.0
  9
$DIMGAP
 40
0.09
  9
$LUNITS
 70
     2
  9
$LUPREC
 70
     4
  9
$SKETCHINC
 40
0.1
  9
$FILLETRAD
 40
0.5
  9
$AUNITS
 70
     0
  9
$AUPREC
 70
     0
  9
$MENU
  1
.
  9
$ELEVATION
 40
0.0
  9
$PELEVATION
 40
0.0
  9
$THICKNESS
 40
0.0
  9
$LIMCHECK
 70
     0
  9
$CHAMFERA
 40
0.5
  9
$CHAMFERB
 40
0.5
  9
$SKPOLY
 70
     0
  9
$TDCREATE
 40
2454910.5
  9
$TDUPDATE
 40
2457758.562222986
  9
$TDINDWG
 40
0.0000000116
  9
$TDUSRTIMER
 40
0.0000000116
  9
$USRTIMER
 70
     1
  9
$ANGBASE
 50
0.0
  9
$ANGDIR
 70
     0
  9
$PDMODE
 70
     0
  9
$PDSIZE
 40
0.0
  9
$PLINEWID
 40
0.0
  9
$COORDS
 70
     1
  9
$SPLFRAME
 70
     0
  9
$SPLINETYPE
 70
     6
  9
$SPLINESEGS
 70
     8
  9
$ATTDIA
 70
     0
  9
$ATTREQ
 70
     1
  9
$HANDLING
 70
     1
  9
$HANDSEED
  5
D0
  9
$SURFTAB1
 70
     6
  9
$SURFTAB2
 70
     6
  9
$SURFTYPE
 70
     6
  9
$SURFU
 70
     6
  9
$SURFV
 70
     6
  9
$UCSNAME
  2

  9
$UCSORG
 10
0.0
 20
0.0
 30
0.0
  9
$UCSXDIR
 10
1.0
 20
0.0
 30
0.0
  9
$UCSYDIR
 10
0.0
 20
1.0
 30
0.0
  9
$PUCSNAME
  2

  9
$PUCSORG
 10
0.0
 20
0.0
 30
0.0
  9
$PUCSXDIR
 10
1.0
 20
0.0
 30
0.0
  9
$PUCSYDIR
 10
0.0
 20
1.0
 30
0.0
  9
$USERI1
 70
     0
  9
$USERI2
 70
     0
  9
$USERI3
 70
     0
  9
$USERI4
 70
     0
  9
$USERI5
 70
     0
  9
$USERR1
 40
0.0
  9
$USERR2
 40
0.0
  9
$USERR3
 40
0.0
  9
$USERR4
 40
0.0
  9
$USERR5
 40
0.0
  9
$WORLDVIEW
 70
     1
  9
$SHADEDGE
 70
     3
  9
$SHADEDIF
 70
    70
  9
$TILEMODE
 70
     1
  9
$MAXACTVP
 70
    64
  9
$PLIMCHECK
 70
     0
  9
$PEXTMIN
 10
1.000000000000000E+20
 20
1.000000000000000E+20
 30
1.000000000000000E+20
  9
$PEXTMAX
 10
-1.000000000000000E+20
 20
-1.000000000000000E+20
 30
-1.000000000000000E+20
  9
$PLIMMIN
 10
0.0
 20
0.0
  9
$PLIMMAX
 10
12.0
 20
9.0
  9
$UNITMODE
 70
     0
  9
$VISRETAIN
 70
     1
  9
$PLINEGEN
 70
     0
  9
$PSLTSCALE
 70
     1
  0
ENDSEC
  0
SECTION
  2
TABLES
  0
TABLE
  2
VPORT
 70
     1
  0
VPORT
  2
*ACTIVE
 70
     0
 10
0.0
 20
0.0
 11
1.0
 21
1.0
 12
10.42990654205607
 22
4.5
 13
0.0
 23
0.0
 14
0.5
 24
0.5
 15
0.5
 25
0.5
 16
0.0
 26
0.0
 36
1.0
 17
0.0
 27
0.0
 37
0.0
 40
9.0
 41
1.972972972850329
 42
50.0
 43
0.0
 44
0.0
 50
0.0
 51
0.0
 71
     0
 72
   100
 73
     1
 74
     3
 75
     0
 76
     0
 77
     0
 78
     0
  0
ENDTAB
  0
TABLE
  2
LTYPE
 70
     2
  0
LTYPE
  2
CONTINUOUS
 70
     0
  3
Solid line
 72
    65
 73
     0
 40
0.0
  0
LTYPE
  2
CONTINUOUS2
 70
     0
  3
Solid Line
 72
    65
 73
     0
 40
0.0
  0
ENDTAB
  0
TABLE
  2
LAYER
 70
     2
  0
LAYER
  2
0
 70
     0
 62
     7
  6
CONTINUOUS
  0
LAYER
  2
VISIBLE__ISO_
 70
     0
 62
    18
  6
CONTINUOUS
  0
ENDTAB
  0
TABLE
  2
STYLE
 70
     1
  0
STYLE
  2
STANDARD
 70
     0
 40
0.0
 41
1.0
 50
0.0
 71
     0
 42
0.2
  3
txt
  4

  0
ENDTAB
  0
TABLE
  2
VIEW
 70
     0
  0
ENDTAB
  0
TABLE
  2
UCS
 70
     0
  0
ENDTAB
  0
TABLE
  2
APPID
 70
     1
  0
APPID
  2
ACAD
 70
     0
  0
ENDTAB
  0
TABLE
  2
DIMSTYLE
 70
     1
  0
DIMSTYLE
  2
STANDARD
 70
     0
  3

  4

  5

  6

  7

 40
1.0
 41
0.18
 42
0.0625
 43
0.38
 44
0.18
 45
0.0
 46
0.0
 47
0.0
 48
0.0
140
0.18
141
0.09
142
0.0
143
25.4
144
1.0
145
0.0
146
1.0
147
0.09
 71
     0
 72
     0
 73
     1
 74
     1
 75
     0
 76
     0
 77
     0
 78
     0
170
     0
171
     2
172
     0
173
     0
174
     0
175
     0
176
     0
177
     0
178
     0
  0
ENDTAB
  0
ENDSEC
  0
SECTION
  2
BLOCKS
  0
BLOCK
  8
0
  2
$MODEL_SPACE
 70
     0
 10
0.0
 20
0.0
 30
0.0
  3
$MODEL_SPACE
  1

  0
ENDBLK
  5
21
  8
0
  0
BLOCK
 67
     1
  8
0
  2
$PAPER_SPACE
 70
     0
 10
0.0
 20
0.0
 30
0.0
  3
$PAPER_SPACE
  1

  0
ENDBLK
  5
1D
 67
     1
  8
0
  0
ENDSEC
  0
SECTION
  2
ENTITIES
  0
POLYLINE
  5
41
  8
VISIBLE__ISO_
 66
     1
 10
0.0
 20
0.0
 30
0.0
 70
     1
  0
VERTEX
  5
5B
  8
VISIBLE__ISO_
 10
73.29887230635399
 20
86.4
 30
0.0
 42
0.4142135623730951
  0
VERTEX
  5
5C
  8
VISIBLE__ISO_
 10
71.29887230635399
 20
84.4
 30
0.0
 42
0.4142135623730951
  0
VERTEX
  5
5D
  8
VISIBLE__ISO_
 10
73.29887230635399
 20
82.4
 30
0.0
 42
0.4142135623730951
  0
VERTEX
  5
5E
  8
VISIBLE__ISO_
 10
75.29887230635399
 20
84.4
 30
0.0
 42
0.4142135623730951
  0
SEQEND
  5
5F
  8
VISIBLE__ISO_
  0
POLYLINE
  5
42
  8
VISIBLE__ISO_
 66
     1
 10
0.0
 20
0.0
 30
0.0
 70
     1
  0
VERTEX
  5
60
  8
VISIBLE__ISO_
 10
73.298872306354
 20
17.60000000000002
 30
0.0
 42
0.4142135623730951
  0
VERTEX
  5
61
  8
VISIBLE__ISO_
 10
71.298872306354
 20
15.60000000000001
 30
0.0
 42
0.4142135623730951
  0
VERTEX
  5
62
  8
VISIBLE__ISO_
 10
73.298872306354
 20
13.60000000000001
 30
0.0
 42
0.4142135623730951
  0
VERTEX
  5
63
  8
VISIBLE__ISO_
 10
75.298872306354
 20
15.60000000000001
 30
0.0
 42
0.4142135623730951
  0
SEQEND
  5
64
  8
VISIBLE__ISO_
  0
POLYLINE
  5
43
  8
VISIBLE__ISO_
 66
     1
 10
0.0
 20
0.0
 30
0.0
 70
     1
  0
VERTEX
  5
65
  8
VISIBLE__ISO_
 10
115.798872306354
 20
81.5
 30
0.0
 42
0.4142135623730951
  0
VERTEX
  5
66
  8
VISIBLE__ISO_
 10
114.298872306354
 20
80.0
 30
0.0
 42
0.4142135623730951
  0
VERTEX
  5
67
  8
VISIBLE__ISO_
 10
115.798872306354
 20
78.5
 30
0.0
 42
0.4142135623730951
  0
VERTEX
  5
68
  8
VISIBLE__ISO_
 10
117.298872306354
 20
80.0
 30
0.0
 42
0.4142135623730951
  0
SEQEND
  5
69
  8
VISIBLE__ISO_
  0
POLYLINE
  5
44
  8
VISIBLE__ISO_
 66
     1
 10
0.0
 20
0.0
 30
0.0
 70
     1
  0
VERTEX
  5
6A
  8
VISIBLE__ISO_
 10
115.798872306354
 20
21.50000000000001
 30
0.0
 42
0.4142135623730951
  0
VERTEX
  5
6B
  8
VISIBLE__ISO_
 10
114.298872306354
 20
20.00000000000001
 30
0.0
 42
0.4142135623730951
  0
VERTEX
  5
6C
  8
VISIBLE__ISO_
 10
115.798872306354
 20
18.50000000000001
 30
0.0
 42
0.4142135623730951
  0
VERTEX
  5
6D
  8
VISIBLE__ISO_
 10
117.298872306354
 20
20.00000000000001
 30
0.0
 42
0.4142135623730951
  0
SEQEND
  5
6E
  8
VISIBLE__ISO_
  0
POLYLINE
  5
45
  8
VISIBLE__ISO_
 66
     1
 10
0.0
 20
0.0
 30
0.0
 70
     1
  0
VERTEX
  5
6F
  8
VISIBLE__ISO_
 10
109.998872306354
 20
44.00000000000003
 30
0.0
 42
0.4142135623730951
  0
VERTEX
  5
70
  8
VISIBLE__ISO_
 10
108.998872306354
 20
43.00000000000003
 30
0.0
 42
0.4142135623730951
  0
VERTEX
  5
71
  8
VISIBLE__ISO_
 10
109.998872306354
 20
42.00000000000003
 30
0.0
 42
0.4142135623730951
  0
VERTEX
  5
72
  8
VISIBLE__ISO_
 10
110.998872306354
 20
43.00000000000003
 30
0.0
 42
0.4142135623730951
  0
SEQEND
  5
73
  8
VISIBLE__ISO_
  0
POLYLINE
  5
46
  8
VISIBLE__ISO_
 66
     1
 10
0.0
 20
0.0
 30
0.0
 70
     1
  0
VERTEX
  5
74
  8
VISIBLE__ISO_
 10
109.998872306354
 20
58.00000000000003
 30
0.0
 42
0.4142135623730951
  0
VERTEX
  5
75
  8
VISIBLE__ISO_
 10
108.998872306354
 20
57.00000000000003
 30
0.0
 42
0.4142135623730951
  0
VERTEX
  5
76
  8
VISIBLE__ISO_
 10
109.998872306354
 20
56.00000000000003
 30
0.0
 42
0.4142135623730951
  0
VERTEX
  5
77
  8
VISIBLE__ISO_
 10
110.998872306354
 20
57.00000000000003
 30
0.0
 42
0.4142135623730951
  0
SEQEND
  5
78
  8
VISIBLE__ISO_
  0
POLYLINE
  5
47
  8
VISIBLE__ISO_
 66
     1
 10
0.0
 20
0.0
 30
0.0
 70
     1
  0
VERTEX
  5
79
  8
VISIBLE__ISO_
 10
24.99887230635401
 20
11.5
 30
0.0
 42
0.4142135623730951
  0
VERTEX
  5
7A
  8
VISIBLE__ISO_
 10
23.49887230635401
 20
10.0
 30
0.0
 42
0.4142135623730951
  0
VERTEX
  5
7B
  8
VISIBLE__ISO_
 10
24.99887230635401
 20
8.500000000000002
 30
0.0
 42
0.4142135623730951
  0
VERTEX
  5
7C
  8
VISIBLE__ISO_
 10
26.49887230635401
 20
10.0
 30
0.0
 42
0.4142135623730951
  0
SEQEND
  5
7D
  8
VISIBLE__ISO_
  0
POLYLINE
  5
48
  8
VISIBLE__ISO_
 66
     1
 10
0.0
 20
0.0
 30
0.0
 70
     1
  0
VERTEX
  5
7E
  8
VISIBLE__ISO_
 10
104.998872306354
 20
91.5
 30
0.0
 42
0.4142135623730951
  0
VERTEX
  5
7F
  8
VISIBLE__ISO_
 10
103.498872306354
 20
90.0
 30
0.0
 42
0.4142135623730951
  0
VERTEX
  5
80
  8
VISIBLE__ISO_
 10
104.998872306354
 20
88.5
 30
0.0
 42
0.4142135623730951
  0
VERTEX
  5
81
  8
VISIBLE__ISO_
 10
106.498872306354
 20
90.0
 30
0.0
 42
0.4142135623730951
  0
SEQEND
  5
82
  8
VISIBLE__ISO_
  0
POLYLINE
  5
49
  8
VISIBLE__ISO_
 66
     1
 10
0.0
 20
0.0
 30
0.0
 70
     1
  0
VERTEX
  5
83
  8
VISIBLE__ISO_
 10
104.998872306354
 20
11.50000000000002
 30
0.0
 42
0.4142135623730951
  0
VERTEX
  5
84
  8
VISIBLE__ISO_
 10
103.498872306354
 20
10.00000000000002
 30
0.0
 42
0.4142135623730951
  0
VERTEX
  5
85
  8
VISIBLE__ISO_
 10
104.998872306354
 20
8.500000000000021
 30
0.0
 42
0.4142135623730951
  0
VERTEX
  5
86
  8
VISIBLE__ISO_
 10
106.498872306354
 20
10.00000000000002
 30
0.0
 42
0.4142135623730951
  0
SEQEND
  5
87
  8
VISIBLE__ISO_
  0
POLYLINE
  5
4A
  8
VISIBLE__ISO_
 66
     1
 10
0.0
 20
0.0
 30
0.0
 70
     1
  0
VERTEX
  5
88
  8
VISIBLE__ISO_
 10
24.99887230635399
 20
91.49999999999999
 30
0.0
 42
0.4142135623730951
  0
VERTEX
  5
89
  8
VISIBLE__ISO_
 10
23.49887230635399
 20
89.99999999999999
 30
0.0
 42
0.4142135623730951
  0
VERTEX
  5
8A
  8
VISIBLE__ISO_
 10
24.99887230635399
 20
88.49999999999999
 30
0.0
 42
0.4142135623730951
  0
VERTEX
  5
8B
  8
VISIBLE__ISO_
 10
26.49887230635399
 20
89.99999999999999
 30
0.0
 42
0.4142135623730951
  0
SEQEND
  5
8C
  8
VISIBLE__ISO_
  0
POLYLINE
  5
4B
  8
VISIBLE__ISO_
 66
     1
 10
0.0
 20
0.0
 30
0.0
 70
     1
  0
VERTEX
  5
8D
  8
VISIBLE__ISO_
 10
44.99887230635399
 20
31.50000000000001
 30
0.0
 42
0.4142135623730951
  0
VERTEX
  5
8E
  8
VISIBLE__ISO_
 10
43.49887230635399
 20
30.00000000000001
 30
0.0
 42
0.4142135623730951
  0
VERTEX
  5
8F
  8
VISIBLE__ISO_
 10
44.99887230635399
 20
28.50000000000001
 30
0.0
 42
0.4142135623730951
  0
VERTEX
  5
90
  8
VISIBLE__ISO_
 10
46.49887230635399
 20
30.00000000000001
 30
0.0
 42
0.4142135623730951
  0
SEQEND
  5
91
  8
VISIBLE__ISO_
  0
POLYLINE
  5
4C
  8
VISIBLE__ISO_
 66
     1
 10
0.0
 20
0.0
 30
0.0
 70
     1
  0
VERTEX
  5
92
  8
VISIBLE__ISO_
 10
84.99887230635399
 20
71.5
 30
0.0
 42
0.4142135623730951
  0
VERTEX
  5
93
  8
VISIBLE__ISO_
 10
83.49887230635399
 20
70.0
 30
0.0
 42
0.4142135623730951
  0
VERTEX
  5
94
  8
VISIBLE__ISO_
 10
84.99887230635399
 20
68.5
 30
0.0
 42
0.4142135623730951
  0
VERTEX
  5
95
  8
VISIBLE__ISO_
 10
86.49887230635399
 20
70.0
 30
0.0
 42
0.4142135623730951
  0
SEQEND
  5
96
  8
VISIBLE__ISO_
  0
POLYLINE
  5
4D
  8
VISIBLE__ISO_
 66
     1
 10
0.0
 20
0.0
 30
0.0
 70
     1
  0
VERTEX
  5
97
  8
VISIBLE__ISO_
 10
84.99887230635399
 20
31.5
 30
0.0
 42
0.4142135623730951
  0
VERTEX
  5
98
  8
VISIBLE__ISO_
 10
83.49887230635399
 20
30.0
 30
0.0
 42
0.4142135623730951
  0
VERTEX
  5
99
  8
VISIBLE__ISO_
 10
84.99887230635399
 20
28.5
 30
0.0
 42
0.4142135623730951
  0
VERTEX
  5
9A
  8
VISIBLE__ISO_
 10
86.49887230635399
 20
30.0
 30
0.0
 42
0.4142135623730951
  0
SEQEND
  5
9B
  8
VISIBLE__ISO_
  0
POLYLINE
  5
4E
  8
VISIBLE__ISO_
 66
     1
 10
0.0
 20
0.0
 30
0.0
 70
     1
  0
VERTEX
  5
9C
  8
VISIBLE__ISO_
 10
44.99887230635399
 20
71.5
 30
0.0
 42
0.4142135623730951
  0
VERTEX
  5
9D
  8
VISIBLE__ISO_
 10
43.49887230635399
 20
70.0
 30
0.0
 42
0.4142135623730951
  0
VERTEX
  5
9E
  8
VISIBLE__ISO_
 10
44.99887230635399
 20
68.5
 30
0.0
 42
0.4142135623730951
  0
VERTEX
  5
9F
  8
VISIBLE__ISO_
 10
46.49887230635399
 20
70.0
 30
0.0
 42
0.4142135623730951
  0
SEQEND
  5
A0
  8
VISIBLE__ISO_
  0
POLYLINE
  5
4F
  8
VISIBLE__ISO_
 66
     1
 10
0.0
 20
0.0
 30
0.0
 70
     1
  0
VERTEX
  5
A1
  8
VISIBLE__ISO_
 10
35.998872306354
 20
26.84999999999998
 30
0.0
 42
0.4142135623730951
  0
VERTEX
  5
A2
  8
VISIBLE__ISO_
 10
34.648872306354
 20
25.49999999999998
 30
0.0
 42
0.4142135623730951
  0
VERTEX
  5
A3
  8
VISIBLE__ISO_
 10
35.998872306354
 20
24.14999999999998
 30
0.0
 42
0.4142135623730951
  0
VERTEX
  5
A4
  8
VISIBLE__ISO_
 10
37.348872306354
 20
25.49999999999998
 30
0.0
 42
0.4142135623730951
  0
SEQEND
  5
A5
  8
VISIBLE__ISO_
  0
POLYLINE
  5
50
  8
VISIBLE__ISO_
 66
     1
 10
0.0
 20
0.0
 30
0.0
 70
     1
  0
VERTEX
  5
A6
  8
VISIBLE__ISO_
 10
93.99887230635399
 20
75.85000000000001
 30
0.0
 42
0.4142135623730951
  0
VERTEX
  5
A7
  8
VISIBLE__ISO_
 10
92.648872306354
 20
74.50000000000001
 30
0.0
 42
0.4142135623730951
  0
VERTEX
  5
A8
  8
VISIBLE__ISO_
 10
93.99887230635399
 20
73.15000000000002
 30
0.0
 42
0.4142135623730951
  0
VERTEX
  5
A9
  8
VISIBLE__ISO_
 10
95.34887230635398
 20
74.50000000000001
 30
0.0
 42
0.4142135623730951
  0
SEQEND
  5
AA
  8
VISIBLE__ISO_
  0
POLYLINE
  5
51
  8
VISIBLE__ISO_
 66
     1
 10
0.0
 20
0.0
 30
0.0
 70
     1
  0
VERTEX
  5
AB
  8
VISIBLE__ISO_
 10
93.99887230635399
 20
26.85000000000002
 30
0.0
 42
0.4142135623730951
  0
VERTEX
  5
AC
  8
VISIBLE__ISO_
 10
92.648872306354
 20
25.50000000000001
 30
0.0
 42
0.4142135623730951
  0
VERTEX
  5
AD
  8
VISIBLE__ISO_
 10
93.99887230635399
 20
24.15000000000001
 30
0.0
 42
0.4142135623730951
  0
VERTEX
  5
AE
  8
VISIBLE__ISO_
 10
95.34887230635398
 20
25.50000000000001
 30
0.0
 42
0.4142135623730951
  0
SEQEND
  5
AF
  8
VISIBLE__ISO_
  0
POLYLINE
  5
52
  8
VISIBLE__ISO_
 66
     1
 10
0.0
 20
0.0
 30
0.0
 70
     1
  0
VERTEX
  5
B0
  8
VISIBLE__ISO_
 10
35.99887230635398
 20
75.85000000000001
 30
0.0
 42
0.4142135623730951
  0
VERTEX
  5
B1
  8
VISIBLE__ISO_
 10
34.64887230635398
 20
74.50000000000001
 30
0.0
 42
0.4142135623730951
  0
VERTEX
  5
B2
  8
VISIBLE__ISO_
 10
35.99887230635398
 20
73.15000000000002
 30
0.0
 42
0.4142135623730951
  0
VERTEX
  5
B3
  8
VISIBLE__ISO_
 10
37.34887230635398
 20
74.50000000000001
 30
0.0
 42
0.4142135623730951
  0
SEQEND
  5
B4
  8
VISIBLE__ISO_
  0
POLYLINE
  5
53
  8
VISIBLE__ISO_
 66
     1
 10
0.0
 20
0.0
 30
0.0
 70
     1
  0
VERTEX
  5
B5
  8
VISIBLE__ISO_
 10
59.99887230635398
 20
91.99999999999999
 30
0.0
 42
0.4142135623731115
  0
VERTEX
  5
B6
  8
VISIBLE__ISO_
 10
60.99887230635398
 20
91.00000000000001
 30
0.0
  0
VERTEX
  5
B7
  8
VISIBLE__ISO_
 10
68.998872306354
 20
91.00000000000003
 30
0.0
 42
0.414213562373078
  0
VERTEX
  5
B8
  8
VISIBLE__ISO_
 10
69.998872306354
 20
92.00000000000001
 30
0.0
  0
VERTEX
  5
B9
  8
VISIBLE__ISO_
 10
69.998872306354
 20
93.00000000000001
 30
0.0
 42
0.414213562373078
  0
VERTEX
  5
BA
  8
VISIBLE__ISO_
 10
68.998872306354
 20
94.00000000000001
 30
0.0
  0
VERTEX
  5
BB
  8
VISIBLE__ISO_
 10
60.99887230635398
 20
94.0
 30
0.0
 42
0.4142135623731023
  0
VERTEX
  5
BC
  8
VISIBLE__ISO_
 10
59.99887230635399
 20
93.00000000000001
 30
0.0
  0
SEQEND
  5
BD
  8
VISIBLE__ISO_
  0
POLYLINE
  5
54
  8
VISIBLE__ISO_
 66
     1
 10
0.0
 20
0.0
 30
0.0
 70
     1
  0
VERTEX
  5
BE
  8
VISIBLE__ISO_
 10
60.998872306354
 20
6.000000000000005
 30
0.0
  0
VERTEX
  5
BF
  8
VISIBLE__ISO_
 10
68.998872306354
 20
6.000000000000005
 30
0.0
 42
0.4142135623730935
  0
VERTEX
  5
C0
  8
VISIBLE__ISO_
 10
69.998872306354
 20
7.000000000000002
 30
0.0
  0
VERTEX
  5
C1
  8
VISIBLE__ISO_
 10
69.998872306354
 20
8.000000000000002
 30
0.0
 42
0.4142135623730872
  0
VERTEX
  5
C2
  8
VISIBLE__ISO_
 10
68.998872306354
 20
9.0
 30
0.0
  0
VERTEX
  5
C3
  8
VISIBLE__ISO_
 10
60.998872306354
 20
8.999999999999996
 30
0.0
 42
0.414213562373093
  0
VERTEX
  5
C4
  8
VISIBLE__ISO_
 10
59.998872306354
 20
7.999999999999993
 30
0.0
  0
VERTEX
  5
C5
  8
VISIBLE__ISO_
 10
59.998872306354
 20
7.000000000000002
 30
0.0
 42
0.4142135623730993
  0
SEQEND
  5
C6
  8
VISIBLE__ISO_
  0
POLYLINE
  5
55
  8
VISIBLE__ISO_
 66
     1
 10
0.0
 20
0.0
 30
0.0
 70
     1
  0
VERTEX
  5
C7
  8
VISIBLE__ISO_
 10
22.89908263645858
 20
0.4761904761904763
 30
0.0
 42
0.1779812474908007
  0
VERTEX
  5
C8
  8
VISIBLE__ISO_
 10
24.19446078014766
 20
0.000000000000004
 30
0.0
  0
VERTEX
  5
C9
  8
VISIBLE__ISO_
 10
105.8032838325603
 20
0.0000000000000178
 30
0.0
 42
0.1779812474908077
  0
VERTEX
  5
CA
  8
VISIBLE__ISO_
 10
107.0986619762494
 20
0.4761904761904825
 30
0.0
 42
0.4624080932040346
  0
VERTEX
  5
CB
  8
VISIBLE__ISO_
 10
107.0986619762494
 20
99.52380952380953
 30
0.0
 42
0.1779812474907989
  0
VERTEX
  5
CC
  8
VISIBLE__ISO_
 10
105.8032838325603
 20
100.0
 30
0.0
  0
VERTEX
  5
CD
  8
VISIBLE__ISO_
 10
24.19446078014767
 20
100.0
 30
0.0
 42
0.1779812474907968
  0
VERTEX
  5
CE
  8
VISIBLE__ISO_
 10
22.8990826364586
 20
99.52380952380955
 30
0.0
 42
0.4624080932040349
  0
SEQEND
  5
CF
  8
VISIBLE__ISO_
  0
ENDSEC
  0
EOF
